<svg xmlns="http://www.w3.org/2000/svg" width="364.4" height="72.001">
    <style>.st0{fill:#334258}.st1{fill:#00d1b2}</style>
    <g id="svgGroup" stroke-linecap="round" fill-rule="evenodd" font-size="12" stroke-width="1.89">
        <path class="st0" d="M0 71.001v-70h29.1v10H11v19.5h14.2v10H11v30.5H0z" id="0"
            vector-effect="non-scaling-stroke" />
        <path class="st0"
            d="M28.3 71.001l11.4-70h14.9l11.4 70H55l-2-13.9v.2H40.5l-2 13.7H28.3zm13.5-23.2h9.9l-4.9-34.6h-.2l-4.8 34.6z"
            id="1" vector-effect="non-scaling-stroke" />
        <path class="st0"
            d="M70.4 54.801v-37.6a26.066 26.066 0 01.447-4.983q.57-2.925 1.867-5.201a13.715 13.715 0 011.836-2.516A13.337 13.337 0 0181 .687q2.161-.59 4.743-.673A26.677 26.677 0 0186.6.001q7.9 0 12.05 4.5a14.727 14.727 0 013.268 5.926q.662 2.246.827 4.933a29.985 29.985 0 01.055 1.841v7.4H92.4v-8.1a11.197 11.197 0 00-.24-2.433q-.767-3.431-3.982-3.968a7.76 7.76 0 00-1.278-.099 6.607 6.607 0 00-2.341.381Q81.4 11.575 81.4 16.501v39.1q0 6.4 5.5 6.4t5.5-6.4v-10.7h10.4v9.9a26.066 26.066 0 01-.447 4.983q-.57 2.924-1.867 5.2a13.715 13.715 0 01-1.836 2.517 13.337 13.337 0 01-6.45 3.813q-2.161.59-4.743.673a26.677 26.677 0 01-.857.014q-7.9 0-12.05-4.5a14.727 14.727 0 01-3.268-5.927q-.662-2.245-.827-4.933a29.985 29.985 0 01-.055-1.84z"
            id="2" vector-effect="non-scaling-stroke" />
        <path class="st0" d="M118 71.001v-60h-11.5v-10h34v10H129v60h-11z" id="3"
            vector-effect="non-scaling-stroke" />
        <path class="st0"
            d="M145.8 71.001v-70h16.3a29.066 29.066 0 014.417.312q2.327.359 4.174 1.129a11.489 11.489 0 013.809 2.509q3.9 3.95 3.9 12.15v4.3a25.259 25.259 0 01-.422 4.81q-.515 2.647-1.658 4.596a10.176 10.176 0 01-5.12 4.394v.2a9.225 9.225 0 013.234 1.674 8.631 8.631 0 012.416 3.226 16.431 16.431 0 011.005 3.126q.645 2.899.645 6.774v12.3q0 2.933.191 4.767a21.93 21.93 0 00.009.083 12.134 12.134 0 00.951 3.537 13.583 13.583 0 00.049.113h-11.2a18.152 18.152 0 01-.525-1.75 13.945 13.945 0 01-.275-1.45 14.955 14.955 0 01-.086-.884q-.109-1.504-.114-4.251a147.151 147.151 0 010-.265v-12.8q0-4.8-1.55-6.7a4.556 4.556 0 00-1.867-1.332q-.768-.311-1.738-.452a12.174 12.174 0 00-1.745-.116h-3.8v30h-11zm11-40h4q3.3 0 4.95-1.7 1.65-1.7 1.65-5.7v-5.4q0-3.385-1.071-5.104a4.26 4.26 0 00-.279-.396 4.239 4.239 0 00-2.15-1.42q-.72-.219-1.597-.267a9.216 9.216 0 00-.503-.013h-5v20z"
            id="4" vector-effect="non-scaling-stroke" />
        <path class="st0"
            d="M194.6 71.001v-29.8l-13.3-40.2H193l7.5 25.7h.2l7.5-25.7h10.7l-13.3 40.2v29.8h-11z"
            id="5" vector-effect="non-scaling-stroke" />
        <path class="st1" d="M223.9 71.001v-70H253v10h-18.1v19.5h14.2v10h-14.2v30.5h-11z" id="6"
            vector-effect="non-scaling-stroke" />
        <path class="st1"
            d="M252.2 71.001l11.4-70h14.9l11.4 70h-11l-2-13.9v.2h-12.5l-2 13.7h-10.2zm13.5-23.2h9.9l-4.9-34.6h-.2l-4.8 34.6z"
            id="7" vector-effect="non-scaling-stroke" />
        <path class="st1"
            d="M294.3 54.801v-37.6a26.066 26.066 0 01.447-4.983q.57-2.925 1.867-5.201a13.715 13.715 0 011.836-2.516A13.337 13.337 0 01304.9.687q2.161-.59 4.743-.673a26.677 26.677 0 01.857-.013q7.9 0 12.05 4.5a14.727 14.727 0 013.268 5.926q.662 2.246.827 4.933a29.985 29.985 0 01.055 1.841v7.4h-10.4v-8.1a11.197 11.197 0 00-.24-2.433q-.767-3.431-3.982-3.968a7.76 7.76 0 00-1.278-.099 6.607 6.607 0 00-2.341.381q-3.159 1.193-3.159 6.119v39.1q0 6.4 5.5 6.4t5.5-6.4v-10.7h10.4v9.9a26.066 26.066 0 01-.447 4.983q-.57 2.924-1.867 5.2a13.715 13.715 0 01-1.836 2.517 13.337 13.337 0 01-6.45 3.813q-2.161.59-4.743.673a26.677 26.677 0 01-.857.014q-7.9 0-12.05-4.5a14.727 14.727 0 01-3.268-5.927q-.662-2.245-.827-4.933a29.985 29.985 0 01-.055-1.84z"
            id="8" vector-effect="non-scaling-stroke" />
        <path class="st1" d="M341.9 71.001v-60h-11.5v-10h34v10h-11.5v60h-11z" id="9"
            vector-effect="non-scaling-stroke" />
    </g>
</svg>