<?xml version="1.0" encoding="UTF-8" standalone="no"?>
<!-- Created with Inkscape (http://www.inkscape.org/) -->

<svg
   width="128mm"
   height="32.457001mm"
   viewBox="0 0 128 32.457001"
   version="1.1"
   id="svg1990"
   inkscape:version="1.2.1 (9c6d41e410, 2022-07-14)"
   sodipodi:docname="logo-full-text-black-tm.svg"
   xmlns:inkscape="http://www.inkscape.org/namespaces/inkscape"
   xmlns:sodipodi="http://sodipodi.sourceforge.net/DTD/sodipodi-0.dtd"
   xmlns="http://www.w3.org/2000/svg"
   xmlns:svg="http://www.w3.org/2000/svg">
  <sodipodi:namedview
     id="namedview1992"
     pagecolor="#ffffff"
     bordercolor="#666666"
     borderopacity="1.0"
     inkscape:showpageshadow="2"
     inkscape:pageopacity="0.0"
     inkscape:pagecheckerboard="0"
     inkscape:deskcolor="#d1d1d1"
     inkscape:document-units="mm"
     showgrid="false"
     inkscape:zoom="0.74564394"
     inkscape:cx="255.48387"
     inkscape:cy="561.9304"
     inkscape:window-width="1920"
     inkscape:window-height="1017"
     inkscape:window-x="-8"
     inkscape:window-y="-8"
     inkscape:window-maximized="1"
     inkscape:current-layer="layer1" />
  <defs
     id="defs1987">
    <rect
       x="24.2855"
       y="408.88852"
       width="363.78687"
       height="64.430916"
       id="rect5299-1-3" />
  </defs>
  <g
     inkscape:label="Layer 1"
     inkscape:groupmode="layer"
     id="layer1">
    <g
       id="g3093-1-1"
       transform="matrix(0.3085347,0,0,0.3085347,-17.417216,-12.104775)"
       inkscape:export-filename="ff-full-text-teal-tm-black-txt.png"
       inkscape:export-xdpi="600"
       inkscape:export-ydpi="600">
      <g
         id="g5561-1-8"
         transform="translate(-10.51374,-15.770609)"
         style="fill:#00d1b2;fill-opacity:1"
         inkscape:export-filename="ff-logo-teal-tm.png"
         inkscape:export-xdpi="600"
         inkscape:export-ydpi="600">
        <path
           d="m 68.016108,59.11512 c 7.2,17.2 7.1,17 15.7,21.8 7.4,4.1 8.4,5 11,10.2 1.6,3.2 2.7,5.8 2.5,5.8 -0.2,0 -3.9,-2 -8.1,-4.5 -8.7,-5.2 -8.7,-5.5 -2.5,7.8 2.9,6.4 4.6,8.7 7.6,10.7 3.8,2.4 3.9,2.7 4.2,9 0.2,5.5 1.2,8.7 6.500002,20.4 l 6.2,13.9 0.3,-28.6 0.2,-28.7 -5.4,-10.9 -5.5,-10.9 -16.600002,-9.6 c -9.2,-5.3 -16.8,-9.6 -17.1,-9.6 -0.2,0 0.2,1.5 1,3.2 z"
           id="path2572-8-9"
           style="fill:#00d1b2;fill-opacity:1;stroke-width:0.1"
           inkscape:export-filename="logo-teal-for-crop.png"
           inkscape:export-xdpi="600"
           inkscape:export-ydpi="600" />
        <path
           d="m 140.81611,65.61512 -16.3,9.5 -5.5,10.9 -5.4,10.9 0.2,28.7 0.3,28.8 6.4,-14 c 5.6,-12.3 6.4,-14.8 6.5,-20.5 0.1,-6.4 0.2,-6.5 4,-9 3,-2 4.7,-4.3 7.6,-10.7 6.1,-13.2 6.2,-12.9 -2.5,-7.8 -4.1,2.5 -7.8,4.5 -8,4.5 -0.3,0 0.8,-2.6 2.4,-5.8 2.6,-5.2 3.6,-6.1 11,-10.2 7.8,-4.4 8.1,-4.7 11.2,-11.5 5.4,-12 5.9,-13.5 5.2,-13.4 -0.5,0 -8.1,4.4 -17.1,9.6 z"
           id="path2574-9-3"
           style="fill:#00d1b2;fill-opacity:1;stroke-width:0.1" />
      </g>
      <text
         xml:space="preserve"
         style="font-style:normal;font-variant:normal;font-weight:bold;font-stretch:normal;font-size:12.6996px;line-height:1.25;font-family:sans-serif;-inkscape-font-specification:'sans-serif, Bold';font-variant-ligatures:normal;font-variant-caps:normal;font-variant-numeric:normal;font-variant-east-asian:normal;letter-spacing:0px;word-spacing:0px;fill:#00d1b2;fill-opacity:1;stroke:none;stroke-width:0.317494"
         x="122.47475"
         y="129.42906"
         id="text1705-7-9"
         transform="scale(0.89790279,1.1137063)"><tspan
           sodipodi:role="line"
           id="tspan1703-35-5"
           style="font-style:normal;font-variant:normal;font-weight:bold;font-stretch:normal;font-size:12.6996px;font-family:sans-serif;-inkscape-font-specification:'sans-serif, Bold';font-variant-ligatures:normal;font-variant-caps:normal;font-variant-numeric:normal;font-variant-east-asian:normal;fill:#00d1b2;fill-opacity:1;stroke-width:0.317494"
           x="122.47475"
           y="129.42906">™</tspan></text>
    </g>
    <g
       id="g381-4-1"
       inkscape:export-filename="ff-text-white.png"
       inkscape:export-xdpi="600"
       inkscape:export-ydpi="600"
       transform="matrix(0.35307186,0,0,0.35307186,48.552718,-203.43541)">
      <g
         id="svgGroup-8-4"
         stroke-linecap="round"
         fill-rule="evenodd"
         font-size="12px"
         stroke-width="0.5mm"
         transform="matrix(0.75,0,0,0.75,-48.279874,576.18624)">
        <path
           class="st0"
           d="m 0,71.001 v -70 h 29.1 v 10 H 11 v 19.5 h 14.2 v 10 H 11 v 30.5 z"
           id="0-1-9"
           vector-effect="non-scaling-stroke"
           style="fill:#000000" />
        <path
           class="st0"
           d="m 28.3,71.001 11.4,-70 h 14.9 l 11.4,70 H 55 l -2,-13.9 v 0.2 H 40.5 l -2,13.7 z m 13.5,-23.2 h 9.9 l -4.9,-34.6 h -0.2 z"
           id="1-5-5"
           vector-effect="non-scaling-stroke"
           style="fill:#000000" />
        <path
           class="st0"
           d="m 70.4,54.801 v -37.6 a 26.066,26.066 0 0 1 0.447,-4.983 q 0.57,-2.925 1.867,-5.201 A 13.715,13.715 0 0 1 74.55,4.501 13.337,13.337 0 0 1 81,0.687 q 2.161,-0.59 4.743,-0.673 A 26.677,26.677 0 0 1 86.6,0.001 q 7.9,0 12.05,4.5 a 14.727,14.727 0 0 1 3.268,5.926 q 0.662,2.246 0.827,4.933 a 29.985,29.985 0 0 1 0.055,1.841 v 7.4 H 92.4 v -8.1 A 11.197,11.197 0 0 0 92.16,14.068 Q 91.393,10.637 88.178,10.1 A 7.76,7.76 0 0 0 86.9,10.001 6.607,6.607 0 0 0 84.559,10.382 Q 81.4,11.575 81.4,16.501 v 39.1 q 0,6.4 5.5,6.4 5.5,0 5.5,-6.4 v -10.7 h 10.4 v 9.9 a 26.066,26.066 0 0 1 -0.447,4.983 q -0.57,2.924 -1.867,5.2 a 13.715,13.715 0 0 1 -1.836,2.517 13.337,13.337 0 0 1 -6.45,3.813 q -2.161,0.59 -4.743,0.673 A 26.677,26.677 0 0 1 86.6,72.001 q -7.9,0 -12.05,-4.5 A 14.727,14.727 0 0 1 71.282,61.574 Q 70.62,59.329 70.455,56.641 A 29.985,29.985 0 0 1 70.4,54.801 Z"
           id="2-5-8"
           vector-effect="non-scaling-stroke"
           style="fill:#000000" />
        <path
           class="st0"
           d="m 118,71.001 v -60 h -11.5 v -10 h 34 v 10 H 129 v 60 z"
           id="3-54-1"
           vector-effect="non-scaling-stroke"
           style="fill:#000000" />
        <path
           class="st0"
           d="m 145.8,71.001 v -70 h 16.3 a 29.066,29.066 0 0 1 4.417,0.312 q 2.327,0.359 4.174,1.129 a 11.489,11.489 0 0 1 3.809,2.509 q 3.9,3.95 3.9,12.15 v 4.3 a 25.259,25.259 0 0 1 -0.422,4.81 q -0.515,2.647 -1.658,4.596 a 10.176,10.176 0 0 1 -5.12,4.394 v 0.2 a 9.225,9.225 0 0 1 3.234,1.674 8.631,8.631 0 0 1 2.416,3.226 16.431,16.431 0 0 1 1.005,3.126 q 0.645,2.899 0.645,6.774 v 12.3 q 0,2.933 0.191,4.767 a 21.93,21.93 0 0 0 0.009,0.083 12.134,12.134 0 0 0 0.951,3.537 13.583,13.583 0 0 0 0.049,0.113 h -11.2 a 18.152,18.152 0 0 1 -0.525,-1.75 13.945,13.945 0 0 1 -0.275,-1.45 14.955,14.955 0 0 1 -0.086,-0.884 q -0.109,-1.504 -0.114,-4.251 a 147.151,147.151 0 0 1 0,-0.265 v -12.8 q 0,-4.8 -1.55,-6.7 a 4.556,4.556 0 0 0 -1.867,-1.332 q -0.768,-0.311 -1.738,-0.452 A 12.174,12.174 0 0 0 160.6,41.001 h -3.8 v 30 z m 11,-40 h 4 q 3.3,0 4.95,-1.7 1.65,-1.7 1.65,-5.7 v -5.4 q 0,-3.385 -1.071,-5.104 a 4.26,4.26 0 0 0 -0.279,-0.396 4.239,4.239 0 0 0 -2.15,-1.42 q -0.72,-0.219 -1.597,-0.267 A 9.216,9.216 0 0 0 161.8,11.001 h -5 z"
           id="4-5-2"
           vector-effect="non-scaling-stroke"
           style="fill:#000000" />
        <path
           class="st0"
           d="m 194.6,71.001 v -29.8 L 181.3,1.001 H 193 l 7.5,25.7 h 0.2 l 7.5,-25.7 h 10.7 l -13.3,40.2 v 29.8 z"
           id="5-5-7"
           vector-effect="non-scaling-stroke"
           style="fill:#000000" />
        <path
           class="st1"
           d="m 223.9,71.001 v -70 H 253 v 10 h -18.1 v 19.5 h 14.2 v 10 h -14.2 v 30.5 z"
           id="6-0-2"
           vector-effect="non-scaling-stroke"
           style="fill:#00d1b2" />
        <path
           class="st1"
           d="m 252.2,71.001 11.4,-70 h 14.9 l 11.4,70 h -11 l -2,-13.9 v 0.2 h -12.5 l -2,13.7 z m 13.5,-23.2 h 9.9 l -4.9,-34.6 h -0.2 z"
           id="7-9-6"
           vector-effect="non-scaling-stroke"
           style="fill:#00d1b2" />
        <path
           class="st1"
           d="m 294.3,54.801 v -37.6 a 26.066,26.066 0 0 1 0.447,-4.983 q 0.57,-2.925 1.867,-5.201 a 13.715,13.715 0 0 1 1.836,-2.516 13.337,13.337 0 0 1 6.45,-3.814 q 2.161,-0.59 4.743,-0.673 A 26.677,26.677 0 0 1 310.5,0.001 q 7.9,0 12.05,4.5 a 14.727,14.727 0 0 1 3.268,5.926 q 0.662,2.246 0.827,4.933 a 29.985,29.985 0 0 1 0.055,1.841 v 7.4 h -10.4 v -8.1 a 11.197,11.197 0 0 0 -0.24,-2.433 q -0.767,-3.431 -3.982,-3.968 a 7.76,7.76 0 0 0 -1.278,-0.099 6.607,6.607 0 0 0 -2.341,0.381 q -3.159,1.193 -3.159,6.119 v 39.1 q 0,6.4 5.5,6.4 5.5,0 5.5,-6.4 v -10.7 h 10.4 v 9.9 a 26.066,26.066 0 0 1 -0.447,4.983 q -0.57,2.924 -1.867,5.2 a 13.715,13.715 0 0 1 -1.836,2.517 13.337,13.337 0 0 1 -6.45,3.813 q -2.161,0.59 -4.743,0.673 a 26.677,26.677 0 0 1 -0.857,0.014 q -7.9,0 -12.05,-4.5 a 14.727,14.727 0 0 1 -3.268,-5.927 q -0.662,-2.245 -0.827,-4.933 a 29.985,29.985 0 0 1 -0.055,-1.84 z"
           id="8-3-6"
           vector-effect="non-scaling-stroke"
           style="fill:#00d1b2" />
        <path
           class="st1"
           d="m 341.9,71.001 v -60 h -11.5 v -10 h 34 v 10 h -11.5 v 60 z"
           id="9-88-3"
           vector-effect="non-scaling-stroke"
           style="fill:#00d1b2" />
      </g>
      <text
         xml:space="preserve"
         transform="matrix(0.77594277,0,0,0.75,-69.194282,329.23169)"
         id="text5297-7-4"
         style="font-style:normal;font-weight:normal;font-size:40px;line-height:1.25;font-family:sans-serif;letter-spacing:0px;word-spacing:0px;white-space:pre;shape-inside:url(#rect5299-1-3);display:inline;fill:#000000;fill-opacity:1;stroke:none"><tspan
           x="24.285156"
           y="445.28368"
           id="tspan2239"><tspan
             style="font-size:27.3333px;-inkscape-font-specification:'sans-serif, Normal'"
             id="tspan2237">Manufacturing Intelligence</tspan></tspan></text>
    </g>
  </g>
</svg>
