<svg xmlns="http://www.w3.org/2000/svg" version="1.0" width="146.667" height="146.667"
    viewBox="0 0 110 110">
    <path
        d="M0 55v55h110V0H0v55zm26.5-39.4l16.6 9.6 5.5 10.9L54 47l-.2 28.7-.3 28.6-6.2-13.9C42 78.7 41 75.5 40.8 70c-.3-6.3-.4-6.6-4.2-9-3-2-4.7-4.3-7.6-10.7-6.2-13.3-6.2-13 2.5-7.8 4.2 2.5 7.9 4.5 8.1 4.5.2 0-.9-2.6-2.5-5.8-2.6-5.2-3.6-6.1-11-10.2-7.8-4.4-8.1-4.7-11.2-11.5C10.1 8.9 8.9 6 9.4 6c.3 0 7.9 4.3 17.1 9.6zm73.1-6.4C91.9 27 92.5 26.1 83.9 31c-7.4 4.1-8.4 5-11 10.2-1.6 3.2-2.7 5.8-2.4 5.8.2 0 3.9-2 8-4.5 8.7-5.1 8.6-5.4 2.5 7.8-2.9 6.4-4.6 8.7-7.6 10.7-3.8 2.5-3.9 2.6-4 9-.1 5.7-.9 8.2-6.5 20.5l-6.4 14-.3-28.8L56 47l5.4-10.9 5.5-10.9 16.3-9.5c9-5.2 16.6-9.6 17.1-9.6.4-.1.1 1.4-.7 3.1z"
        fill="#00D1B2" />
</svg>