<svg fill="#000000" height="800px" width="800px" version="1.1" id="Layer_1"
	xmlns="http://www.w3.org/2000/svg" xmlns:xlink="http://www.w3.org/1999/xlink"
	viewBox="0 0 383.946 383.946" xml:space="preserve">
<g id="XMLID_452_">
	<g>
		<path d="M314.03,201.085v-55.514l-69.916,55.514v-55.514l-104.565,83.025H125.14L110.177,82.782h12.74V28.597H27.839v54.185
			h11.896L24.772,228.597H0v126.752h129.912h10h244.034V145.572L314.03,201.085z M47.839,48.597h55.078v13.202H47.839V48.597z
			 M59.84,82.782h30.233l14.962,145.815H44.878L59.84,82.782z M20,284.097h26.929v15.5H20V284.097z M129.912,335.349H20v-15.752
			h46.929v-55.5H20v-15.5h109.912V335.349z M317.984,335.349H195.491v-50.012h122.493V335.349z M363.946,335.349h-25.962v-70.012
			H175.491v70.012h-25.579v-89.442l74.202-58.917v55.514l69.916-55.514v55.514l69.916-55.514V335.349z"/>
	</g>
</g>
</svg>