<svg xmlns="http://www.w3.org/2000/svg" version="1.0" width="200" height="33.736"><path d="M51.553 2.094H47.18l-13.01 29.29-.392.865h8.752l2.56-6.03h12.97l2.562 6.03h8.752L55.929 2.094h-4.376zm0 19.278H47.18l4.374-10.25 4.416 10.25h-4.416M13.752 8.126h20.813V2.094H5V32.25h8.752V18.966H31.53V13.25H13.752V8.126m87.194 14.468l-16.871-20.5H75.64V32.25h8.435V12.934l15.65 19.315h9.657V2.094h-8.436v20.5m74.503 5.754c-3.036.04-5.401-.946-7.056-2.917-1.655-2.011-2.484-4.73-2.445-8.238 0-3.39.79-6.111 2.287-8.12 1.536-2.09 3.942-3.037 7.214-3.037 3.153.04 5.4.829 6.66 2.445 1.263 1.616 2.13 3.508 2.602 5.676l10.289-.04c-.67-4.138-2.562-7.331-5.636-9.5-3.114-2.207-7.648-3.35-13.6-3.43-6.74-.038-11.668 1.42-14.822 4.377-3.154 2.956-4.692 6.859-4.651 11.629.04 5.991 1.931 10.13 5.715 12.416 3.744 2.325 8.357 3.509 13.758 3.588 5.952.078 10.486-1.065 13.6-3.431 3.074-2.324 4.965-5.519 5.636-9.578h-10.29c-.944 5.4-4.018 8.12-9.261 8.16m-34.176-7.017c0 1.97-.79 3.47-2.406 4.533-1.615 1.064-3.626 1.616-6.069 1.616-2.17.04-4.101-.472-5.835-1.497-1.775-1.027-2.642-2.563-2.642-4.652V2.094h-8.75v19.948c0 2.167.589 3.98 1.774 5.4 1.143 1.418 2.601 2.562 4.374 3.429a21.669 21.669 0 005.6 1.812c2.009.356 3.823.514 5.48.553 1.496 0 3.23-.158 5.201-.474a22.594 22.594 0 005.677-1.774c1.775-.867 3.272-2.01 4.494-3.469 1.261-1.457 1.852-3.272 1.852-5.477V2.094h-8.75v19.237" fill="#d91433" fill-rule="evenodd"/></svg>