<svg xmlns="http://www.w3.org/2000/svg" height="88.976" width="300"><path d="M34.245 87.38H1l16.625-28.794H50.87L34.245 87.38zm33.247 0h33.252L84.12 58.585H50.87L67.492 87.38zm0-57.587L50.87 1 34.245 29.793 50.87 58.584l16.622-28.79z" fill="#ed1b23"/><path d="M115.67 75.122h13.316v-4.83H115.67v-5.94h14.98v-4.83h-20.623v27.857h21.017v-4.83H115.67v-7.427zm-.389-40.948l5.915 20.704h5.42l5.917-20.704v20.704h5.256V27.025h-8.049l-5.83 19.55-5.834-19.55h-8.051v27.853h5.256V34.174zm128.225-7.148h-5.612v27.852h5.612V27.026zm4.574 32.495h-5.61V87.38h5.61V59.521zM299 27.026h-5.61v27.852H299V27.026zm-153.363 0h-5.611v27.852h5.611V27.026zM285.55 37.89h-11.153V27.027h-5.521v27.85h5.521V42.72h11.152v12.158h5.521v-27.85h-5.52V37.89zM153.935 54.878h5.732V31.85h6.805v-4.824H147.13v4.824h6.805v23.028zm51.181 32.502h5.723V64.353h6.807V59.52h-19.34v4.833h6.81v23.025zm-3.834-31.727c7.147 0 11.112-3.252 11.112-9.47V27.026h-5.61v19.665c0 2.393-2.016 4.395-5.502 4.395-4.218 0-5.46-2.362-5.46-4.395V27.026h-5.517v19.157c0 6.694 4.155 9.47 10.977 9.47m-42.405 19.469h13.322v-4.83h-13.322v-5.94h14.985v-4.83h-20.627v27.857h21.018v-4.83h-15.376v-7.427zm68.07-43.672c1.532 0 3.245 1.424 3.245 3.298 0 1.669-1.197 3.507-3.56 3.507h-6.68v-6.806h6.995zm-.415 19.217h-6.58v-8.076h6.515c2.345 0 4.327 1.347 4.327 4.048 0 2.286-1.8 4.028-4.262 4.028m-6.363 4.21h8.04c5.24 0 8.365-3.134 8.365-7.519 0-3.544-2.572-6.586-5.371-7.285 2.448-.623 4.414-3.121 4.414-6.197 0-4.106-3.036-6.849-8.681-6.849h-12.56v27.85h5.793zm4.497 17.016v-7.58h6.793c2.292 0 3.82 1.608 3.82 3.808 0 1.547-1.358 3.772-3.654 3.772h-6.959zm11.181 2.113c2.39-.72 4.955-2.862 4.955-6.73 0-4.952-3.355-7.794-9.063-7.794H219.02V87.34h5.645V76.362h4.789c2.898 0 4.473 1.503 4.948 3.488.52 2.189.388 5.451.948 7.489h5.67c-.551-2.132-.875-5.033-.997-7.323-.205-3.77-2.187-5.273-4.177-6.01m-97.35-14.484h-5.641V87.38h18.771v-4.83h-13.13V59.521zm37.394-16.415c4.521.79 7.091 1.623 7.091 4.321 0 1.827-1.81 3.56-5.559 3.56-3.75 0-5.673-2.133-5.673-4.663h-5.407c0 4.844 3.138 9.273 11.324 9.273 7.793 0 11.171-4.124 11.171-8.833 0-4.388-2.877-7.173-8.024-8.184-4.942-.97-8.335-1.18-8.335-4.313 0-2.15 1.968-3.422 4.99-3.422 3.219 0 5.065 1.58 5.065 4.252h5.45c0-4.395-3.33-8.919-10.738-8.919-5.108 0-10.409 2.943-10.409 8.447 0 4.627 3.398 7.492 9.054 8.48m78.532.001c4.517.79 7.085 1.623 7.085 4.321 0 1.827-1.804 3.56-5.555 3.56-3.75 0-5.677-2.133-5.677-4.663h-5.404c0 4.844 3.137 9.273 11.32 9.273 7.793 0 11.174-4.124 11.174-8.833 0-4.388-2.876-7.173-8.02-8.184-4.947-.97-8.336-1.18-8.336-4.313 0-2.15 1.964-3.422 4.991-3.422 3.21 0 5.06 1.58 5.06 4.252h5.452c0-4.395-3.332-8.919-10.737-8.919-5.113 0-10.413 2.943-10.413 8.447 0 4.627 3.404 7.492 9.06 8.48" fill="#221e1f"/><path d="M186.95 83.076c-4.538 0-7.186-4.446-7.186-9.74 0-5.296 2.555-9.748 7.186-9.748 3.444 0 5.212 2.145 5.978 4.764h5.844c-.958-5.452-5.223-9.504-11.982-9.504-8.52 0-12.83 6.521-12.83 14.566 0 8.045 4.486 14.562 12.83 14.562 6.68 0 11.188-3.882 12.015-9.832h-5.877c-.766 2.8-2.595 4.932-5.978 4.932m75.485 0c-4.537 0-7.185-4.446-7.185-9.74 0-5.296 2.552-9.748 7.185-9.748 3.447 0 5.216 2.145 5.978 4.764h5.843c-.96-5.452-5.223-9.504-11.984-9.504-8.522 0-12.83 6.521-12.83 14.566 0 8.045 4.487 14.562 12.83 14.562 6.681 0 11.188-3.882 12.017-9.832h-5.876c-.762 2.8-2.6 4.932-5.978 4.932" fill="#221e1f"/></svg>